<svg width="665" height="229" viewBox="0 0 665 229" fill="none" xmlns="http://www.w3.org/2000/svg">
  <path d="M186.75 0C136.535 0 92.545 27.52 83 64C37.35 64 0 92.8 0 128C0 163.2 37.35 192 83 192H269.75C304.195 192 332 170.56 332 144C332 123.2 314.57 102.72 290.5 96V80C290.5 35.84 244.02 0 186.75 0Z" fill="url(#paint0_linear_635_2)"></path>
  <path d="M367.25 78.1C367.25 70.2 370.25 63.95 376.25 59.35C382.35 54.65 391 52.3 402.2 52.3C410.6 52.3 417.65 53.25 423.35 55.15V76.45C417.35 74.15 411.35 73 405.35 73C399.35 73 395.3 73.7 393.2 75.1C391.1 76.5 390.05 78.4 390.05 80.8V130.15C390.05 132.55 390.8 134.4 392.3 135.7C393.8 136.9 396 137.5 398.9 137.5C401.9 137.5 404.2 137.1 405.8 136.3V101.2H427.7V151.45C419.9 155.65 410.65 157.75 399.95 157.75C389.25 157.75 381.1 155.55 375.5 151.15C370 146.75 367.25 140.55 367.25 132.55V78.1ZM461.416 119.5V157H438.916V53.05H472.816C481.016 53.05 487.416 55 492.016 58.9C496.616 62.8 498.916 68.5 498.916 76V95.2C498.916 107.2 494.816 114.7 486.616 117.7L502.966 157H478.216L464.266 119.5H461.416ZM461.416 72.25V101.65H470.266C472.566 101.65 474.166 101.15 475.066 100.15C475.966 99.15 476.416 97.4 476.416 94.9V77.95C476.416 75.75 475.916 74.25 474.916 73.45C473.916 72.65 472.366 72.25 470.266 72.25H461.416ZM511.279 53.05H534.079V157H511.279V53.05ZM601.907 53.05V72.55H583.157V157H560.357V72.55H541.607V53.05H601.907ZM663.724 53.05V72.55H644.974V157H622.174V72.55H603.424V53.05H663.724Z" fill="black"></path>
  <defs>
    <linearGradient id="paint0_linear_635_2" x1="-4.50729e-07" y1="121" x2="327" y2="125" gradientUnits="userSpaceOnUse">
      <stop stop-color="#FAFF00"></stop>
      <stop offset="1" stop-color="#00FFA3"></stop>
    </linearGradient>
  </defs>
</svg>
