<svg xmlns="http://www.w3.org/2000/svg" viewBox="0 0 114.133 27.738" overflow="visible" id="svg1024535478_5144"><path d="M 8.177 22.127 L 8.136 22.087 C 3.408 17.305 3.443 9.588 8.218 4.849 C 10.508 2.574 13.61 1.303 16.839 1.318 C 20.067 1.333 23.158 2.632 25.427 4.928 L 25.467 4.969 C 25.574 5.077 25.574 5.252 25.467 5.36 C 25.415 5.411 25.345 5.441 25.272 5.441 C 25.198 5.441 25.128 5.411 25.076 5.36 L 24.996 5.28 C 23.013 3.293 20.322 2.176 17.515 2.176 C 14.708 2.176 12.016 3.293 10.034 5.28 C 5.902 9.422 5.902 16.126 10.034 20.268 C 10.66 20.896 11.322 21.49 12.019 22.048 C 12.065 22.087 12.115 22.123 12.168 22.154 C 12.22 22.186 12.281 22.202 12.342 22.201 C 12.404 22.195 12.463 22.173 12.512 22.135 C 12.561 22.098 12.606 22.057 12.648 22.012 L 15.623 19.035 C 15.69 18.968 15.737 18.914 15.765 18.875 C 15.81 18.818 15.835 18.748 15.836 18.675 C 15.829 18.603 15.798 18.536 15.749 18.483 C 15.701 18.43 15.649 18.38 15.593 18.335 C 14.938 17.782 14.307 17.202 13.7 16.595 C 10.705 13.592 10.705 8.731 13.7 5.728 C 15.138 4.288 17.089 3.478 19.125 3.478 C 21.16 3.478 23.112 4.288 24.549 5.728 L 24.628 5.808 C 24.736 5.916 24.736 6.091 24.628 6.2 C 24.577 6.251 24.506 6.281 24.433 6.281 C 24.36 6.281 24.289 6.251 24.238 6.2 L 24.158 6.12 C 23.007 4.967 21.445 4.318 19.815 4.318 C 18.185 4.318 16.623 4.967 15.472 6.12 C 13.073 8.525 13.073 12.417 15.472 14.822 C 16.093 15.445 16.735 16.047 17.397 16.629 C 17.459 16.684 17.508 16.722 17.546 16.745 C 17.608 16.784 17.669 16.803 17.725 16.8 C 17.78 16.8 17.84 16.778 17.903 16.736 C 17.954 16.697 18.001 16.654 18.045 16.607 L 20.507 14.142 C 20.557 14.094 20.603 14.043 20.644 13.988 C 20.687 13.933 20.712 13.866 20.715 13.796 C 20.711 13.726 20.683 13.659 20.637 13.605 C 20.593 13.551 20.545 13.501 20.492 13.455 C 19.857 12.871 19.234 12.274 18.624 11.663 C 17.22 10.255 17.22 7.976 18.624 6.568 C 19.298 5.893 20.213 5.513 21.167 5.513 C 22.121 5.513 23.036 5.893 23.71 6.568 C 24.074 6.93 24.426 7.302 24.772 7.683 C 25.318 8.287 26.25 8.332 26.852 7.784 C 27.426 7.262 27.498 6.387 27.02 5.776 C 21.846 -0.796 12.331 -1.926 5.767 3.255 C -0.797 8.434 -1.925 17.965 3.247 24.54 C 4.175 25.721 5.273 26.757 6.506 27.613 C 6.636 27.702 6.741 27.745 6.823 27.738 C 6.904 27.731 7.001 27.671 7.113 27.559 L 10.137 24.528 C 10.191 24.477 10.24 24.422 10.285 24.363 C 10.332 24.304 10.357 24.231 10.356 24.156 C 10.347 24.082 10.312 24.013 10.258 23.961 C 10.207 23.909 10.152 23.861 10.093 23.818 C 9.419 23.295 8.779 22.73 8.177 22.127 Z M 45.699 13.129 C 45.107 16.935 42.589 18.895 38.209 18.895 C 33.827 18.895 30.578 15.901 30.578 11.197 C 30.578 6.492 33.687 3.499 38.209 3.499 C 42.476 3.499 45.389 6.045 45.671 9.237 L 42.987 9.237 C 42.677 6.913 40.811 5.738 38.209 5.738 C 35.155 5.738 33.121 7.757 33.121 11.197 C 33.121 14.638 35.155 16.655 38.209 16.655 C 41.036 16.655 42.421 15.676 43.014 13.129 Z M 62.716 11.197 C 62.716 16.095 59.411 18.895 55.084 18.895 C 50.758 18.895 47.453 16.095 47.453 11.197 C 47.453 6.298 50.758 3.499 55.084 3.499 C 59.411 3.499 62.716 6.298 62.716 11.197 Z M 49.994 11.197 C 49.994 14.642 52.027 16.655 55.081 16.655 C 58.135 16.655 60.168 14.642 60.168 11.197 C 60.168 7.753 58.134 5.738 55.081 5.738 C 52.027 5.738 49.994 7.757 49.994 11.197 Z M 87.186 9.237 L 87.186 18.475 L 84.643 18.475 L 84.643 9.517 C 84.643 7.025 83.37 5.738 80.968 5.738 C 78.793 5.738 77.152 7.193 77.152 10.218 L 77.152 18.475 L 74.609 18.475 L 74.609 9.517 C 74.609 7.025 73.336 5.738 70.935 5.738 C 68.759 5.738 67.119 7.193 67.119 10.218 L 67.119 18.475 L 64.574 18.475 L 64.574 3.92 L 67.119 3.92 L 67.119 5.545 C 67.119 5.685 67.173 5.739 67.314 5.739 C 67.456 5.739 67.597 5.545 67.624 5.459 C 68.499 4.145 69.886 3.501 71.778 3.501 C 74.012 3.501 75.594 4.453 76.415 6.047 C 76.501 6.186 76.583 6.299 76.697 6.299 C 76.838 6.299 76.924 6.186 77.035 5.992 C 77.854 4.339 79.465 3.501 81.811 3.501 C 85.175 3.501 87.182 5.686 87.182 9.239 L 87.186 9.239 Z M 103.871 13.857 C 103.532 15.283 102.795 16.461 101.695 17.441 C 100.566 18.421 98.924 18.895 96.805 18.895 C 92.141 18.895 89.032 15.897 89.032 11.197 C 89.032 6.496 91.999 3.499 96.521 3.499 C 101.044 3.499 103.842 6.605 103.842 10.217 L 103.87 11.897 L 91.718 11.897 C 91.913 14.809 93.781 16.655 96.804 16.655 C 99.263 16.655 100.706 15.731 101.186 13.855 L 103.871 13.855 Z M 91.745 9.797 L 101.016 9.797 C 101.016 7.25 99.349 5.738 96.523 5.738 C 93.892 5.738 92.114 7.193 91.745 9.797 Z M 110.176 16.236 C 110.034 16.236 109.948 16.209 109.866 16.124 C 109.785 16.043 109.743 15.931 109.751 15.817 L 109.751 6.159 L 113.284 6.159 L 113.284 3.923 L 109.751 3.923 L 109.751 0 L 107.208 0 L 107.208 3.92 L 103.816 3.92 L 103.816 6.155 L 109.371 6.155 C 109.135 6.155 108.675 6.633 108.523 6.796 C 108.091 7.262 107.698 7.815 107.467 8.425 C 107.204 9.117 107.235 9.814 107.208 10.536 L 107.208 12.776 L 107.208 12.764 L 107.208 13.72 C 107.208 16.349 109.359 18.48 112.013 18.48 L 114.133 18.48 L 114.133 16.24 L 110.176 16.24 Z" fill="var(--token-8740f4aa-bb38-489d-9272-2825d8190d51, rgb(9, 23, 23)) /* {&quot;name&quot;:&quot;Offblack&quot;} */"/></svg>